<svg xmlns="http://www.w3.org/2000/svg" viewBox="-64 -64 384 384" width="64" height="64">
  <g transform="rotate(90 128 128)">
    <path d="M248.5,207.7c-1.7-7.7-6.8-13.3-14.4-16.3c-1.7-0.6-4.5-1.1-8.6-1.3c-9.2-0.6-8.4,0-25.7-17.3l-23.5-23.5c0,0,5.9-9.9-1.7-18.3c-8.6-9.6-12.9-15.8-17.6-25.1c-6.4-12.7-9.1-22.2-12.3-42.8C140,33.5,118,11.2,88.2,5.8c-5.8-1.1-17.4-1.1-23.2,0c-10,1.8-19.2,5.5-27.3,10.9C29.4,22.2,19.9,33,15.3,42C2.8,67,6,96.3,23.7,117.7c4.4,5.4,8.5,9.1,14.2,12.9c8.5,5.8,15.5,8.6,27.2,11.1c12.9,2.8,20.7,5.4,31.2,10.5c11.3,5.6,21.6,12.9,32.4,22.8c2.4,2.3,10-0.5,12.9-1.7c0.2,0,0.4,0,0.6,0c0.4,0,0.7,0,1.1,0l20,20.1c11.3,11.3,21.2,21.4,22,22.5c2.1,2.9,2.9,5.8,3.1,11.7c0.4,10.4,4.6,17.2,12.7,21.1c11.2,5.3,24.4,0.7,29.9-10.5c1.7-3.5,1.9-3.7,4.9-5.1c3.5-1.7,7.4-4.9,9.4-7.9C248.4,220.5,249.8,213.4,248.5,207.7z" fill="#E6993A"/>
  </g>
</svg>
