<svg xmlns="http://www.w3.org/2000/svg" width="115" height="165" viewBox="0 0 115 165">
  <rect x="3" y="3" width="109" height="159" rx="22" fill="#2a1a0e" stroke="#8b6914" stroke-width="2.5"/>
  <rect x="10" y="10" width="95" height="145" rx="11" fill="none" stroke="#6b4c1e" stroke-width="1.5"/>
  <rect x="18" y="18" width="79" height="129" rx="7" fill="none" stroke="#4a3512" stroke-width="1"/>
  <circle cx="57.5" cy="82.5" r="25" fill="none" stroke="#8b6914" stroke-width="2"/>
  <circle cx="57.5" cy="82.5" r="15" fill="none" stroke="#6b4c1e" stroke-width="1.5"/>
  <circle cx="57.5" cy="82.5" r="5" fill="#8b6914"/>
  <line x1="57.5" y1="57.5" x2="57.5" y2="18" stroke="#6b4c1e" stroke-width="1.5"/>
  <line x1="57.5" y1="107.5" x2="57.5" y2="147" stroke="#6b4c1e" stroke-width="1.5"/>
  <line x1="32.5" y1="82.5" x2="18" y2="82.5" stroke="#6b4c1e" stroke-width="1.5"/>
  <line x1="82.5" y1="82.5" x2="97" y2="82.5" stroke="#6b4c1e" stroke-width="1.5"/>
  <line x1="40" y1="65" x2="25" y2="30" stroke="#4a3512" stroke-width="1"/>
  <line x1="75" y1="65" x2="90" y2="30" stroke="#4a3512" stroke-width="1"/>
  <line x1="40" y1="100" x2="25" y2="135" stroke="#4a3512" stroke-width="1"/>
  <line x1="75" y1="100" x2="90" y2="135" stroke="#4a3512" stroke-width="1"/>
  <circle cx="25" cy="30" r="3.5" fill="#4a3512"/>
  <circle cx="90" cy="30" r="3.5" fill="#4a3512"/>
  <circle cx="25" cy="135" r="3.5" fill="#4a3512"/>
  <circle cx="90" cy="135" r="3.5" fill="#4a3512"/>
</svg>
