<svg xmlns="http://www.w3.org/2000/svg" width="128" height="128" viewBox="0 0 128 128">
  <rect x="4" y="4" width="120" height="120" rx="8" fill="#2a1a0e" stroke="#8b6914" stroke-width="3"/>
  <rect x="12" y="12" width="104" height="104" rx="4" fill="none" stroke="#6b4c1e" stroke-width="1.5"/>
  <rect x="20" y="20" width="88" height="88" rx="2" fill="none" stroke="#4a3512" stroke-width="1"/>
  <circle cx="64" cy="64" r="28" fill="none" stroke="#8b6914" stroke-width="2"/>
  <circle cx="64" cy="64" r="18" fill="none" stroke="#6b4c1e" stroke-width="1.5"/>
  <circle cx="64" cy="64" r="6" fill="#8b6914"/>
  <line x1="64" y1="36" x2="64" y2="20" stroke="#6b4c1e" stroke-width="1.5"/>
  <line x1="64" y1="92" x2="64" y2="108" stroke="#6b4c1e" stroke-width="1.5"/>
  <line x1="36" y1="64" x2="20" y2="64" stroke="#6b4c1e" stroke-width="1.5"/>
  <line x1="92" y1="64" x2="108" y2="64" stroke="#6b4c1e" stroke-width="1.5"/>
  <line x1="44" y1="44" x2="28" y2="28" stroke="#4a3512" stroke-width="1"/>
  <line x1="84" y1="44" x2="100" y2="28" stroke="#4a3512" stroke-width="1"/>
  <line x1="44" y1="84" x2="28" y2="100" stroke="#4a3512" stroke-width="1"/>
  <line x1="84" y1="84" x2="100" y2="100" stroke="#4a3512" stroke-width="1"/>
  <circle cx="28" cy="28" r="4" fill="#4a3512"/>
  <circle cx="100" cy="28" r="4" fill="#4a3512"/>
  <circle cx="28" cy="100" r="4" fill="#4a3512"/>
  <circle cx="100" cy="100" r="4" fill="#4a3512"/>
</svg>
