<svg xmlns="http://www.w3.org/2000/svg" viewBox="0 0 512 512">
  <!-- Sickle (right side) -->
  <g transform="translate(70, 20) scale(0.825) rotate(-10 256 256)">
    <path fill="#fff" d="M257.563 25.156c353.16 276.87 16.918 408.895-87.875 293.25l-40.75 37.125 50.812 50.345c217.562 181.363 524.73-252.058 77.813-380.72zM110.75 364.28c-5.525 1.065-8.975 2.957-11.313 5.25-1.956 1.922-3.248 4.556-4.25 7.564l55.188 52.844c5.468-1.008 9.264-2.796 11.28-4.688 1.997-1.872 3.095-3.864 3.095-7.53l-54-53.44zm-24.72 30.314L30.407 445.28c-16.737 27 14.693 61.198 51.093 44.66l51.53-50.282-47-45.062z"/>
  </g>
  <!-- Axe (left side, flipped) -->
  <g transform="translate(372, 0) scale(-0.683, 0.683) rotate(-30 256 256) translate(0, 60)">
    <path fill="#fff" d="M215.344 22.813 205.03 37.906l71.782 46.375 8.938-12.81c-15.62-23.633-44.153-40.97-70.406-48.657zm-38.47 18.843c-28.32 35.34-79.16 105.16-105.718 145.313 61.96 26.364 113.013 69.562 133.22 119.593 5.064 12.54 8.125 25.566 8.78 38.75 36.873-9.75 80.34-36.93 117.25-70.5 30.105-27.38 55.912-59.115 71.406-87.75L176.875 41.655zm240.657 155.53c-16.836 31.038-43.713 63.084-74.717 91.283-40.21 36.57-87.238 66.474-130.47 76.03a105.8 105.8 0 0 1-6.343 24.72c-8.91 22.832-26.23 44.633-52.656 64.592 64.678 10.955 135.135-13.105 195.844-53.687 64.21-42.923 116.84-104.112 139.28-157.063l-70.937-45.875zM84.814 213.782 16.5 313.72v143.717l135.875-194.812c-18.23-18.513-41.412-35.295-67.563-48.844z"/>
  </g>
</svg>
